# xmcd
#
# Track frame offsets:
#	150
#	20292
#	40495
#	61270
#	78863
#	101349
#	114859
#	129984
#	154962
#	170684
#	190129
#	210723
#	222190
#
# Disc length: 3187 seconds
#
# Revision: 0
# Processed by: cddbd v1.4PL0 Copyright (c) Steve Scherf et al.
# Submitted via: dBpowerAMP V4.0
#
DISCID=a70c710d
DTITLE=David Egan - Twenty Years of Trouble
DYEAR=2003
DGENRE=Blues
TTITLE0=Twenty Years of Trouble
TTITLE1=Slingshots and Boomerangs
TTITLE2=If She Calls...
TTITLE3=I Was Good to You Baby
TTITLE4=Half Past the Blues
TTITLE5=I Just Can't Do Right
TTITLE6=Fail, Fail, Fail
TTITLE7=People Will be People
TTITLE8=Beg, Borrow or Steal
TTITLE9=She Don't Play by the Rules
TTITLE10=After this Time
TTITLE11=If You Knew How Much
TTITLE12=Wake Up Call
EXTD=
EXTT0=
EXTT1=
EXTT2=
EXTT3=
EXTT4=
EXTT5=
EXTT6=
EXTT7=
EXTT8=
EXTT9=
EXTT10=
EXTT11=
EXTT12=
PLAYORDER=
